#!OML:ASF X:\für Bonn\!DataBase\2005_08_12_Daniel\c3d\Daniel.ASF
:FULLY-SPECIFIED
:DEGREES
897
root 16.9793 17.2364 28.5722 -367.448 54.3344 359.353
lowerback 10.202 2.72878 -4.63875
upperback 0.779269 2.95893 -4.20867
thorax -4.91769 1.5482 -2.22404
lowerneck 4.74693 3.21642 -5.30157
upperneck 18.727 5.40141 -3.1285
head 4.84621 2.33607 0.0690654
rclavicle 3.40605e-014 -1.59028e-014
rhumerus -27.3413 -0.883304 -96.9688
rradius 22.5671
rwrist 20.1096
rhand -15.8235 17.4376
rfingers 7.12502
rthumb 10.3704 -12.2867
lclavicle 3.40605e-014 -1.59028e-014
lhumerus -40.4966 35.0854 69.038
lradius 22.6899
lwrist -29.9726
lhand -9.28651 -6.43429
lfingers 7.12502
lthumb 16.6706 22.8698
rfemur -5.30776 -2.0753 14.9017
rtibia 52.6671
rfoot -13.6124 -2.55898
rtoes -10.481
lfemur -18.6929 7.93266 -27.1367
ltibia 40.6242
lfoot 0.314007 -2.42095
ltoes 52.8104
898
root 17.0647 17.2542 28.6424 -367.443 55.0984 359.291
lowerback 10.0566 2.66463 -4.68323
upperback 0.748552 2.87895 -4.19763
thorax -4.87158 1.50986 -2.16904
lowerneck 4.8314 3.10332 -5.85273
upperneck 18.8602 5.23118 -2.92255
head 4.86101 2.22912 0.218803
rclavicle -6.12443e-014 6.20208e-014
rhumerus -27.6384 -0.0722641 -97.2521
rradius 22.8476
rwrist 19.9622
rhand -15.9469 17.6305
rfingers 7.12502
rthumb 10.2514 -12.0997
lclavicle -6.12443e-014 6.20208e-014
lhumerus -38.9567 32.7453 71.7551
lradius 23.9433
lwrist -27.7625
lhand -9.5768 -6.55658
lfingers 7.12502
lthumb 16.3911 22.7708
rfemur -5.98383 -1.34372 15.0527
rtibia 52.2898
rfoot -13.8546 -2.06341
rtoes -10.3497
lfemur -18.0199 6.72855 -27.2073
ltibia 40.2286
lfoot -0.488049 -1.88502
ltoes 52.3266
899
root 17.1477 17.2687 28.7117 -367.406 55.8652 359.282
lowerback 9.92458 2.60688 -4.72753
upperback 0.730147 2.80658 -4.22319
thorax -4.81794 1.47521 -2.15421
lowerneck 4.97389 2.98157 -6.32445
upperneck 18.8918 5.04613 -2.78973
head 4.83969 2.11941 0.330219
rclavicle 4.80282e-014 6.36111e-015
rhumerus -27.9085 0.645737 -97.5459
rradius 23.1135
rwrist 19.8225
rhand -15.9997 17.8327
rfingers 7.12502
rthumb 10.2005 -11.9
lclavicle 4.80282e-014 6.36111e-015
lhumerus -37.5723 30.3907 74.1906
lradius 25.2756
lwrist -25.6831
lhand -9.73745 -6.56536
lfingers 7.12502
lthumb 16.2365 22.7748
rfemur -6.59796 -0.594282 15.1732
rtibia 51.9018
rfoot -14.103 -1.5698
rtoes -10.5701
lfemur -17.3696 5.58791 -27.3121
ltibia 39.8561
lfoot -1.17383 -1.36097
ltoes 51.8515
900
root 17.2308 17.2795 28.7788 -367.304 56.6594 359.303
lowerback 9.76528 2.5465 -4.78017
upperback 0.675779 2.72953 -4.24638
thorax -4.78731 1.43861 -2.13186
lowerneck 5.1133 2.85627 -6.81836
upperneck 18.9786 4.85485 -2.61773
head 4.83625 2.00583 0.458341
rclavicle -2.55485e-014 1.90833e-014
rhumerus -28.1572 1.30714 -97.8165
rradius 23.2672
rwrist 19.6624
rhand -16.0822 17.9167
rfingers 7.12502
rthumb 10.1209 -11.8198
lclavicle -2.55485e-014 1.90833e-014
lhumerus -36.411 28.1831 76.3003
lradius 26.5997
lwrist -23.9005
lhand -9.80053 -6.36428
lfingers 7.12502
lthumb 16.1757 22.9808
rfemur -7.24364 0.168305 15.2448
rtibia 51.5017
rfoot -14.3532 -1.14773
rtoes -10.8208
lfemur -16.7818 4.44594 -27.4573
ltibia 39.4985
lfoot -1.8491 -0.89263
ltoes 51.3206
901
root 17.3133 17.2907 28.8456 -367.299 57.4889 359.286
lowerback 9.64814 2.48177 -4.79723
upperback 0.693504 2.65287 -4.26601
thorax -4.70284 1.40098 -2.1252
lowerneck 5.18631 2.73628 -7.25948
upperneck 19.0366 4.67744 -2.48281
head 4.83732 1.8996 0.567806
rclavicle 1.79419e-014 1.43125e-014
rhumerus -28.2666 1.83716 -98.0111
rradius 23.3581
rwrist 19.5848
rhand -16.0558 17.9556
rfingers 7.12502
rthumb 10.1463 -11.7797
lclavicle 1.79419e-014 1.43125e-014
lhumerus -35.2526 26.0117 78.2686
lradius 27.9598
lwrist -22.2479
lhand -9.90035 -6.01115
lfingers 7.12502
lthumb 16.0796 23.3417
rfemur -7.76436 0.92901 15.3306
rtibia 51.069
rfoot -14.5808 -0.700123
rtoes -11.2818
lfemur -16.1436 3.28082 -27.5721
ltibia 39.1637
lfoot -2.43067 -0.409513
ltoes 51.0344
902
root 17.3961 17.3025 28.912 -367.255 58.3493 359.275
lowerback 9.52409 2.41718 -4.78557
upperback 0.647269 2.57444 -4.32092
thorax -4.67885 1.36241 -2.1738
lowerneck 5.4845 2.63865 -7.6404
upperneck 18.9778 4.49955 -2.33643
head 4.76698 1.80511 0.665333
rclavicle -1.09387e-013 3.18055e-015
rhumerus -28.5114 2.46171 -98.2719
rradius 23.5584
rwrist 19.3047
rhand -15.9349 17.8225
rfingers 7.12502
rthumb 10.2629 -11.9071
lclavicle -1.09387e-013 3.18055e-015
lhumerus -34.2724 23.9107 79.9253
lradius 29.2934
lwrist -20.6487
lhand -9.93696 -5.71386
lfingers 7.12502
lthumb 16.0444 23.6418
rfemur -8.29974 1.69434 15.3849
rtibia 50.5985
rfoot -14.7701 -0.354007
rtoes -12.0538
lfemur -15.549 2.16001 -27.7089
ltibia 38.8421
lfoot -3.01908 -0.00846527
ltoes 50.6388
903
root 17.4788 17.3135 28.9765 -367.184 59.2414 359.268
lowerback 9.32968 2.33401 -4.79994
upperback 0.64648 2.47853 -4.33477
thorax -4.57076 1.315 -2.15731
lowerneck 5.68205 2.54282 -8.00954
upperneck 18.9051 4.34822 -2.31028
head 4.71258 1.71693 0.726201
rclavicle -1.97667e-014 -6.99722e-014
rhumerus -28.6076 3.11615 -98.4196
rradius 23.6233
rwrist 19.0261
rhand -15.8274 17.8296
rfingers 7.12502
rthumb 10.3667 -11.8949
lclavicle -1.97667e-014 -6.99722e-014
lhumerus -33.3344 22.0272 81.426
lradius 30.646
lwrist -19.2824
lhand -9.99707 -5.51672
lfingers 7.12502
lthumb 15.9865 23.8436
rfemur -8.84702 2.39481 15.4016
rtibia 50.0929
rfoot -14.8617 -0.0104359
rtoes -12.8103
lfemur -15.0126 1.05332 -27.8545
ltibia 38.5351
lfoot -3.59151 0.300226
ltoes 50.0994
904
root 17.5613 17.3225 29.0418 -367.056 60.2213 359.343
lowerback 9.20326 2.24933 -4.84076
upperback 0.596634 2.36841 -4.3804
thorax -4.55197 1.26195 -2.16336
lowerneck 6.00141 2.46594 -8.26694
upperneck 18.8335 4.21649 -2.30539
head 4.64083 1.64749 0.760791
rclavicle 3.67379e-014 -2.06736e-014
rhumerus -28.9229 3.93761 -98.6554
rradius 23.8691
rwrist 18.4886
rhand -15.6813 17.5995
rfingers 7.12502
rthumb 10.5076 -12.1178
lclavicle 3.67379e-014 -2.06736e-014
lhumerus -32.6401 20.1735 82.7115
lradius 32.1303
lwrist -17.9678
lhand -10.0797 -5.44863
lfingers 7.12502
lthumb 15.9069 23.9181
rfemur -9.31263 3.07884 15.3462
rtibia 49.5617
rfoot -15.041 0.367934
rtoes -13.3016
lfemur -14.4754 -0.0546058 -28.042
ltibia 38.25
lfoot -4.14404 0.542128
ltoes 49.6048
905
root 17.6442 17.3324 29.1081 -366.89 61.2181 359.436
lowerback 8.99695 2.16198 -4.88441
upperback 0.590839 2.26446 -4.42657
thorax -4.44222 1.21119 -2.16408
lowerneck 6.20818 2.39526 -8.52103
upperneck 18.7781 4.10733 -2.3278
head 4.59287 1.58557 0.789214
rclavicle 1.43498e-014 5.40694e-014
rhumerus -29.0491 4.36026 -98.7687
rradius 23.9488
rwrist 18.2419
rhand -15.4476 17.5171
rfingers 7.12502
rthumb 10.733 -12.1887
lclavicle 1.43498e-014 5.40694e-014
lhumerus -31.9806 18.5422 83.8754
lradius 33.7183
lwrist -16.7888
lhand -10.1327 -5.44478
lfingers 7.12502
lthumb 15.8558 23.926
rfemur -9.77081 3.77412 15.2641
rtibia 49.0065
rfoot -15.1778 0.730684
rtoes -13.7295
lfemur -13.9726 -0.994902 -28.2236
ltibia 37.9906
lfoot -4.68109 0.604644
ltoes 48.9829
906
root 17.7272 17.3392 29.1735 -366.691 62.2421 359.59
lowerback 8.81668 2.0966 -4.93315
upperback 0.594937 2.1879 -4.50118
thorax -4.33575 1.17416 -2.19678
lowerneck 6.37597 2.29084 -8.74239
upperneck 18.7098 3.94463 -2.29343
head 4.54749 1.50156 0.829747
rclavicle 5.58212e-014 1.90833e-014
rhumerus -29.1753 4.66521 -98.8729
rradius 24.0427
rwrist 18.1193
rhand -15.331 17.3122
rfingers 7.12502
rthumb 10.8455 -12.3878
lclavicle 5.58212e-014 1.90833e-014
lhumerus -31.4201 16.7232 84.9412
lradius 35.4039
lwrist -15.5034
lhand -10.2614 -5.57003
lfingers 7.12502
lthumb 15.7319 23.8105
rfemur -10.1893 4.45997 15.1273
rtibia 48.4251
rfoot -15.2445 1.17182
rtoes -14.0526
lfemur -13.4592 -1.88768 -28.4273
ltibia 37.7386
lfoot -5.21317 0.607261
ltoes 48.442
907
root 17.808 17.3456 29.2397 -366.515 63.3121 359.687
lowerback 8.61772 2.00455 -4.98813
upperback 0.587733 2.0769 -4.53863
thorax -4.2323 1.12009 -2.1827
lowerneck 6.44958 2.19297 -8.98137
upperneck 18.7278 3.827 -2.37665
head 4.54653 1.42947 0.840229
rclavicle 6.21202e-016 -2.8625e-014
rhumerus -29.3277 5.01308 -98.9656
rradius 24.1464
rwrist 17.9116
rhand -15.2663 17.213
rfingers 7.12502
rthumb 10.9079 -12.4836
lclavicle 6.21202e-016 -2.8625e-014
lhumerus -30.9042 15.1126 85.8803
lradius 36.983
lwrist -14.3169
lhand -10.3312 -5.88517
lfingers 7.12502
lthumb 15.6647 23.5007
rfemur -10.5564 5.30367 15.0581
rtibia 47.8011
rfoot -15.3409 1.35425
rtoes -14.0909
lfemur -12.9826 -2.74357 -28.5893
ltibia 37.4912
lfoot -5.71557 0.49891
ltoes 47.7391
908
root 17.8892 17.3537 29.3055 -366.222 64.424 359.884
lowerback 8.38276 1.93642 -5.04942
upperback 0.582151 2.00038 -4.6075
thorax -4.106 1.08308 -2.20131
lowerneck 6.52998 2.07431 -9.21799
upperneck 18.7089 3.66515 -2.38694
head 4.53258 1.34036 0.871738
rclavicle -2.72956e-014 3.18055e-015
rhumerus -29.5497 5.1747 -98.986
rradius 24.3471
rwrist 17.8166
rhand -15.1954 17.0823
rfingers 7.12502
rthumb 10.9763 -12.6108
lclavicle -2.72956e-014 3.18055e-015
lhumerus -30.438 13.2463 86.782
lradius 38.5813
lwrist -12.9976
lhand -10.5712 -6.19088
lfingers 7.12502
lthumb 15.4335 23.2129
rfemur -10.9133 6.32451 14.9676
rtibia 47.146
rfoot -15.4592 1.2562
rtoes -14.1027
lfemur -12.5286 -3.56117 -28.7773
ltibia 37.2303
lfoot -6.19436 0.312881
ltoes 47.025
909
root 17.9702 17.3612 29.3716 -365.852 65.5665 360.2
lowerback 8.20353 1.84422 -5.16947
upperback 0.567945 1.88179 -4.68189
thorax -4.02165 1.02681 -2.19116
lowerneck 6.4961 1.96608 -9.46867
upperneck 18.8131 3.54448 -2.41732
head 4.5751 1.26386 0.903226
rclavicle 4.9311e-014 -3.49861e-014
rhumerus -29.7922 5.39844 -99.0464
rradius 24.4875
rwrist 17.7387
rhand -15.219 17.0312
rfingers 7.12502
rthumb 10.9535 -12.663
lclavicle 4.9311e-014 -3.49861e-014
lhumerus -30.0335 11.4912 87.5035
lradius 40.0888
lwrist -11.6951
lhand -10.5942 -6.66433
lfingers 7.12502
lthumb 15.4114 22.7412
rfemur -11.1614 7.54255 14.8564
rtibia 46.4667
rfoot -15.6759 0.970094
rtoes -13.9278
lfemur -12.0348 -4.3104 -29.005
ltibia 36.9506
lfoot -6.63179 0.0387166
ltoes 46.2038
